<svg xmlns:dc="http://purl.org/dc/elements/1.1/" xmlns:cc="http://creativecommons.org/ns#" xmlns:rdf="http://www.w3.org/1999/02/22-rdf-syntax-ns#" xmlns:svg="http://www.w3.org/2000/svg" xmlns="http://www.w3.org/2000/svg" xmlns:xlink="http://www.w3.org/1999/xlink" id="svg741635" viewBox="0 0 1024 768" height="768px" width="973px" version="1.1">
  
  
  
  
  <g id="logo-group">
    
    <g id="logo-center" transform="translate(85.10687111111099 0)">
      
      
      <g id="title" style="font-style:normal;font-weight:800;font-size:72px;line-height:1;font-family:'Montserrat ExtraBold Alt1';font-variant-ligatures:none;text-align:center;text-anchor:middle" transform="translate(0 0)">
        <path id="path741644" style="font-style:normal;font-weight:800;font-size:72px;line-height:1;font-family:'Montserrat ExtraBold Alt1';font-variant-ligatures:none;text-align:center;text-anchor:middle" d="m 320.246,-38.52 c -2.376,-3.744 -5.688,-6.696 -9.936,-8.784 -4.32,-2.016 -9.216,-3.096 -14.688,-3.096 H 271.79 v 11.376 h 23.256 c 4.32,0 7.776,1.224 10.368,3.672 2.592,2.52 3.96,5.904 3.96,10.152 0,4.32 -1.368,7.704 -3.96,10.152 -2.592,2.448 -6.048,3.672 -10.368,3.672 h -9 V -24.768 H 271.79 V 0 h 23.832 c 5.472,0 10.368,-1.008 14.688,-3.096 4.248,-2.016 7.56,-4.968 9.936,-8.784 2.304,-3.744 3.528,-8.208 3.528,-13.32 0,-5.04 -1.224,-9.504 -3.528,-13.32 z" stroke-width="0" stroke-linejoin="miter" stroke-miterlimit="2" fill="#0059bb" stroke="#0059bb" transform="translate(0 310.76) translate(50 25.023999999999994) scale(1.5555555555555556) translate(-271.79 50.4)"/>
        <path id="path741646" style="font-style:normal;font-weight:800;font-size:72px;line-height:1;font-family:'Montserrat ExtraBold Alt1';font-variant-ligatures:none;text-align:center;text-anchor:middle" d="m 338.90638,-1.944 c 3.31199,1.728 7.12799,2.592 11.30399,2.592 4.176,0 7.99201,-0.864 11.376,-2.592 3.312,-1.728 5.976,-4.104 7.848,-7.2 1.872,-3.024 2.808,-6.552 2.808,-10.44 0,-3.888 -0.936,-7.344 -2.808,-10.368 -1.872,-3.024 -4.536,-5.4 -7.848,-7.128 -3.38399,-1.728 -7.2,-2.592 -11.376,-2.592 -4.248,0 -8.064,0.864 -11.37599,2.592 -3.31201,1.728 -5.976,4.104 -7.84801,7.128 -1.872,3.096 -2.80799,6.552 -2.80799,10.368 0,3.888 0.93599,7.416 2.80799,10.44 1.87201,3.096 4.536,5.472 7.92001,7.2 z m 17.20799,-10.728 c -1.584,1.656 -3.528,2.448 -5.904,2.448 -2.44799,0 -4.392,-0.792 -5.904,-2.448 -1.584,-1.656 -2.30399,-3.96 -2.30399,-6.912 0,-2.88 0.71999,-5.112 2.30399,-6.768 1.512,-1.584 3.45601,-2.448 5.904,-2.448 2.376,0 4.32,0.864 5.904,2.448 1.512,1.656 2.304,3.888 2.304,6.768 0,2.952 -0.792,5.256 -2.304,6.912 z" stroke-width="0" stroke-linejoin="miter" stroke-miterlimit="2" fill="#0059bb" stroke="#0059bb" transform="translate(0 310.76) translate(137.7152577777778 41.712) scale(1.5555555555555556) translate(-328.17838 39.672)"/>
        <path id="path741648" style="font-style:normal;font-weight:800;font-size:72px;line-height:1;font-family:'Montserrat ExtraBold Alt1';font-variant-ligatures:none;text-align:center;text-anchor:middle" d="m 386.9315,-1.944 c 3.384,1.728 7.272,2.592 11.592,2.592 4.392,0 8.208,-0.936 11.448,-2.808 3.168,-1.872 5.472,-4.536 6.84,-7.92 l -10.584,-5.4 c -1.8,3.528 -4.392,5.256 -7.776,5.256 -2.448,0 -4.536,-0.792 -6.12,-2.448 -1.584,-1.656 -2.376,-3.96 -2.376,-6.912 0,-2.88 0.792,-5.112 2.376,-6.768 1.584,-1.584 3.672,-2.448 6.12,-2.448 3.384,0 5.976,1.8 7.776,5.256 l 10.584,-5.4 c -1.368,-3.312 -3.672,-5.976 -6.84,-7.848 -3.24,-1.872 -7.056,-2.88 -11.448,-2.88 -4.32,0 -8.208,0.864 -11.592,2.592 -3.456,1.728 -6.12,4.104 -7.992,7.128 -1.872,3.024 -2.808,6.48 -2.808,10.368 0,3.888 0.936,7.416 2.808,10.44 1.872,3.096 4.536,5.472 7.992,7.2 z" stroke-width="0" stroke-linejoin="miter" stroke-miterlimit="2" fill="#0059bb" stroke="#0059bb" transform="translate(0 310.76) translate(212.30900000000005 41.712) scale(1.5555555555555556) translate(-376.1315 39.672)"/>
        <path id="path741650" style="font-style:normal;font-weight:800;font-size:72px;line-height:1;font-family:'Montserrat ExtraBold Alt1';font-variant-ligatures:none;text-align:center;text-anchor:middle" d="m 463.07263,-39.024 h -13.68001 v 18.792 c 0,3.168 -0.72,5.472 -2.088,6.984 -1.368,1.512 -3.096,2.232 -5.25599,2.232 -2.16001,0 -3.74401,-0.648 -4.82401,-2.016 -1.15199,-1.296 -1.656,-3.456 -1.656,-6.408 v -19.584 h -13.68 v 21.816 c 0,5.976 1.44,10.44 4.464,13.392 3.024,3.024 7.05601,4.464 12.096,4.464 2.23201,0 4.392,-0.36 6.408,-1.224 2.01601,-0.792 3.744,-2.016 5.184,-3.6 V 0 h 13.03201 z" stroke-width="0" stroke-linejoin="miter" stroke-miterlimit="2" fill="#0059bb" stroke="#0059bb" transform="translate(0 310.76) translate(283.48674222222223 42.72) scale(1.5555555555555556) translate(-421.88862 39.024)"/>
        <path id="path741652" style="font-style:normal;font-weight:800;font-size:72px;line-height:1;font-family:'Montserrat ExtraBold Alt1';font-variant-ligatures:none;text-align:center;text-anchor:middle" d="m 502.62987,-50.4 h -14.04 L 466.34188,0 h 14.54399 l 3.96,-9.792 4.17601,-10.512 6.47999,-16.128 6.48,16.128 4.176,10.512 3.96001,9.792 h 14.832 z" stroke-width="0" stroke-linejoin="miter" stroke-miterlimit="2" fill="#1c9fe9" stroke="#1c9fe9" transform="translate(0 310.76) translate(352.6362577777778 25.023999999999994) scale(1.5555555555555556) translate(-466.34188 50.4)"/>
        <path id="path741654" style="font-style:normal;font-weight:800;font-size:72px;line-height:1;font-family:'Montserrat ExtraBold Alt1';font-variant-ligatures:none;text-align:center;text-anchor:middle" d="m 565.42512,-35.352 c -2.952,-2.88 -6.84,-4.32 -11.664,-4.32 -2.52,0 -4.82399,0.432 -6.912,1.296 -2.16,0.864 -3.95999,2.016 -5.472,3.6 v -4.248 H 528.34513 V 0 h 13.67999 v -18.864 c 0,-3.024 0.64801,-5.328 2.088,-6.912 1.44001,-1.512 3.312,-2.304 5.688,-2.304 4.248,0 6.408,2.664 6.408,7.992 V 0 h 13.68001 v -22.32 c 0,-5.76 -1.51201,-10.152 -4.46401,-13.032 z" stroke-width="0" stroke-linejoin="miter" stroke-miterlimit="2" fill="#1c9fe9" stroke="#1c9fe9" transform="translate(0 310.76) translate(449.08575777777787 41.712) scale(1.5555555555555556) translate(-528.34513 39.672)"/>
        <path id="path741656" style="font-style:normal;font-weight:800;font-size:72px;line-height:1;font-family:'Montserrat ExtraBold Alt1';font-variant-ligatures:none;text-align:center;text-anchor:middle" d="m 609.87162,-35.208 c -3.456,-2.952 -8.35199,-4.464 -14.832,-4.464 -3.168,0 -6.264,0.432 -9.36,1.224 -3.096,0.792 -5.688,1.872 -7.84799,3.312 l 4.60799,9.288 c 1.29601,-1.008 2.952,-1.872 4.89601,-2.448 1.87199,-0.576 3.81599,-0.936 5.688,-0.936 5.25599,0 7.99199,2.088 8.27999,6.192 h -7.776 c -5.904,0 -10.296,1.08 -13.10399,3.096 -2.88,2.016 -4.24801,4.896 -4.24801,8.568 0,2.304 0.504,4.392 1.65601,6.192 1.15199,1.8 2.808,3.24 5.03999,4.248 2.16,1.08 4.824,1.584 7.848,1.584 5.68801,0 9.504,-1.872 11.52001,-5.688 V 0 h 12.74399 v -21.672 c 0,-6.048 -1.728,-10.584 -5.112,-13.536 z m -11.15999,26.064 c -1.22401,0.792 -2.592,1.152 -4.17601,1.152 -1.58399,0 -2.88,-0.36 -3.744,-1.08 -0.93599,-0.72 -1.36799,-1.656 -1.36799,-2.88 0,-2.592 1.94399,-3.96 5.976,-3.96 h 5.90399 v 3.384 c -0.576,1.512 -1.44,2.664 -2.59199,3.384 z" stroke-width="0" stroke-linejoin="miter" stroke-miterlimit="2" fill="#1c9fe9" stroke="#1c9fe9" transform="translate(0 310.76) translate(523.4887422222223 41.712) scale(1.5555555555555556) translate(-576.17562 39.672)"/>
        <path id="path741658" style="font-style:normal;font-weight:800;font-size:72px;line-height:1;font-family:'Montserrat ExtraBold Alt1';font-variant-ligatures:none;text-align:center;text-anchor:middle" d="M 623.68888,-53.424 V 0 h 13.67999 v -53.424 z" stroke-width="0" stroke-linejoin="miter" stroke-miterlimit="2" fill="#1c9fe9" stroke="#1c9fe9" transform="translate(0 310.76) translate(597.398257777778 20.32) scale(1.5555555555555556) translate(-623.68888 53.424)"/>
        <path id="path741660" style="font-style:normal;font-weight:800;font-size:72px;line-height:1;font-family:'Montserrat ExtraBold Alt1';font-variant-ligatures:none;text-align:center;text-anchor:middle" d="m 687.30088,-39.024 h -13.03201 l -9.648,23.832 -9.57599,-23.832 h -14.04001 l 16.70401,39.528 c -0.576,1.152 -1.29601,2.016 -2.16001,2.52 -0.86399,0.576 -1.872,0.792 -3.168,0.792 -1.15199,0 -2.232,-0.144 -3.31199,-0.576 -1.08001,-0.432 -2.01601,-1.008 -2.73601,-1.728 l -4.752,9.576 c 1.29601,1.08 2.952,1.944 5.04,2.592 2.08801,0.648 4.176,0.936 6.264,0.936 4.032,0 7.48801,-0.936 10.36801,-2.88 2.80799,-1.944 5.18399,-5.328 7.19999,-10.152 z" stroke-width="0" stroke-linejoin="miter" stroke-miterlimit="2" fill="#1c9fe9" stroke="#1c9fe9" transform="translate(0 310.76) translate(624.3342422222224 42.72) scale(1.5555555555555556) translate(-641.00487 39.024)"/>
        <path id="path741662" style="font-style:normal;font-weight:800;font-size:72px;line-height:1;font-family:'Montserrat ExtraBold Alt1';font-variant-ligatures:none;text-align:center;text-anchor:middle" d="m 694.59987,-0.432 c 3.168,0.72 6.336,1.08 9.64801,1.08 4.03199,0 7.55999,-0.504 10.43999,-1.656 2.88,-1.08 5.11201,-2.592 6.624,-4.536 1.44001,-1.944 2.232,-4.176 2.232,-6.624 0,-2.952 -0.79199,-5.256 -2.376,-6.912 -1.58399,-1.656 -3.384,-2.808 -5.472,-3.456 -2.15999,-0.576 -4.82399,-1.152 -7.99199,-1.656 -2.592,-0.36 -4.39201,-0.72 -5.47201,-1.08 -1.15199,-0.36 -1.656,-1.008 -1.656,-1.944 0,-0.792 0.50401,-1.44 1.51201,-1.944 1.00799,-0.504 2.592,-0.792 4.75199,-0.792 4.03201,0 7.776,1.008 11.232,2.88 l 4.10401,-9.288 c -1.87201,-1.008 -4.24801,-1.872 -6.98401,-2.448 -2.808,-0.576 -5.616,-0.864 -8.424,-0.864 -4.032,0 -7.416,0.576 -10.296,1.728 -2.88,1.152 -5.04,2.664 -6.47999,4.608 -1.51201,1.944 -2.23201,4.176 -2.23201,6.624 0,3.024 0.792,5.4 2.37601,7.056 1.58399,1.728 3.45599,2.88 5.616,3.456 2.15999,0.648 4.82399,1.152 7.99199,1.512 2.448,0.36 4.17601,0.72 5.328,1.08 1.15201,0.36 1.72801,0.936 1.72801,1.8 0,0.864 -0.504,1.584 -1.44001,2.016 -0.936,0.432 -2.52,0.648 -4.67999,0.648 -2.44801,0 -4.82401,-0.288 -7.27201,-0.936 -2.448,-0.648 -4.60799,-1.512 -6.336,-2.664 l -4.10399,9.36 c 1.87199,1.224 4.46399,2.232 7.63199,2.952 z" stroke-width="0" stroke-linejoin="miter" stroke-miterlimit="2" fill="#1c9fe9" stroke="#1c9fe9" transform="translate(0 310.76) translate(695.8322577777781 41.712) scale(1.5555555555555556) translate(-686.96788 39.672)"/>
        <path id="path741664" style="font-style:normal;font-weight:800;font-size:72px;line-height:1;font-family:'Montserrat ExtraBold Alt1';font-variant-ligatures:none;text-align:center;text-anchor:middle" d="m 756.36688,-1.584 -3.384,-9.576 c -1.22401,0.864 -2.592,1.224 -4.17601,1.224 -1.296,0 -2.30399,-0.36 -3.024,-1.152 -0.72,-0.792 -1.08,-1.872 -1.08,-3.312 v -12.96 h 8.92801 v -10.224 h -8.92801 v -10.152 h -13.68 v 10.152 h -5.688 v 10.224 h 5.688 v 13.104 c 0,4.968 1.36801,8.712 4.10401,11.16 2.736,2.52 6.62399,3.744 11.736,3.744 1.87199,0 3.59999,-0.144 5.25599,-0.576 1.656,-0.36 3.096,-0.936 4.24801,-1.656 z" stroke-width="0" stroke-linejoin="miter" stroke-miterlimit="2" fill="#1c9fe9" stroke="#1c9fe9" transform="translate(0 310.76) translate(755.5142422222225 29.168) scale(1.5555555555555556) translate(-725.33487 47.736)"/>
      </g>
      <image xlink:href="" id="icon" style="display: none;" x="0" y="0"/>
    </g>
  </g>
</svg>